<?xml version="1.0" encoding="utf-8"?>
<svg xmlns="http://www.w3.org/2000/svg" fill="none" height="24" viewBox="0 0 18 24" width="18">
<path d="M7.46842 21.2433H2.98008C2.68249 21.2433 2.39708 21.3652 2.18665 21.5822C1.97622 21.7991 1.858 22.0934 1.858 22.4002C1.858 22.7071 1.97622 23.0013 2.18665 23.2183C2.39708 23.4353 2.68249 23.5571 2.98008 23.5571H14.2009C14.4985 23.5571 14.7839 23.4353 14.9944 23.2183C15.2048 23.0013 15.323 22.7071 15.323 22.4002C15.323 22.0934 15.2048 21.7991 14.9944 21.5822C14.7839 21.3652 14.4985 21.2433 14.2009 21.2433H9.71259V19.8204C11.5677 19.3905 13.2657 18.425 14.6082 17.0369C15.5491 16.0723 16.295 14.9249 16.8029 13.6612C17.3109 12.3974 17.5706 11.0423 17.5672 9.67436C17.574 7.31085 16.7945 5.01639 15.3589 3.17375L16.1163 2.39516C16.3168 2.17611 16.4266 1.88515 16.4224 1.58402C16.4183 1.28288 16.3005 0.995255 16.0941 0.782148C15.8877 0.569042 15.6089 0.44722 15.3169 0.442524C15.0248 0.437828 14.7424 0.550627 14.5297 0.756994L12.2272 3.12748L13.0216 3.94656C14.505 5.47598 15.323 7.51096 15.323 9.67436C15.323 11.8378 14.505 13.8704 13.0216 15.3998C11.5382 16.9293 9.56671 17.7726 7.46842 17.7726C5.37012 17.7726 3.39862 16.9293 1.91523 15.3998C1.70483 15.1829 1.41946 15.0611 1.12191 15.0611C0.824364 15.0611 0.539001 15.1829 0.328601 15.3998C0.118201 15.6168 0 15.911 0 16.2178C0 16.3697 0.0290191 16.5201 0.0854006 16.6604C0.141782 16.8008 0.224422 16.9283 0.328601 17.0357C1.26384 18.0058 2.37647 18.775 3.60204 19.2986C4.82761 19.8223 6.14177 20.0901 7.46842 20.0864V21.2433ZM7.46842 2.73298C9.32771 2.73298 11.0108 3.51041 12.2294 4.76565C12.8553 5.40973 13.3517 6.17491 13.69 7.01728C14.0283 7.85966 14.2019 8.76263 14.2009 9.67436C14.2018 10.5859 14.0281 11.4887 13.6898 12.3308C13.3515 13.173 12.8552 13.938 12.2294 14.5819C11.6049 15.2276 10.8628 15.7397 10.0458 16.0887C9.22872 16.4377 8.35282 16.6168 7.46842 16.6157C6.58426 16.617 5.70859 16.438 4.89172 16.0892C4.07486 15.7404 3.33292 15.2285 2.70854 14.5831C1.49108 13.3267 0.738161 11.5913 0.738161 9.67436C0.738161 7.75738 1.49108 6.02204 2.70854 4.76565C3.33292 4.12022 4.07486 3.60837 4.89172 3.25954C5.70859 2.9107 6.58426 2.73176 7.46842 2.73298Z" fill="#005EFF"/>
</svg>